<svg width="512" height="512" viewBox="0 0 512 512" fill="none" xmlns="http://www.w3.org/2000/svg">
<g clip-path="url(#clip0_1066_42)">
<path d="M201.998 391.069C184.653 375.212 179.59 341.892 186.816 317.753C199.346 332.972 216.708 337.793 234.691 340.515C262.453 344.714 289.718 343.144 315.508 330.453C318.458 328.999 321.184 327.068 324.408 325.111C326.828 332.132 327.458 339.221 326.613 346.436C324.557 364.007 315.814 377.58 301.908 387.869C296.348 391.985 290.464 395.664 284.721 399.544C267.077 411.471 262.304 425.455 268.933 445.796C269.091 446.295 269.232 446.791 269.588 448C260.58 443.966 254 438.095 248.986 430.375C243.691 422.23 241.172 413.218 241.039 403.466C240.972 398.721 240.972 393.933 240.334 389.255C238.776 377.849 233.423 372.742 223.337 372.448C212.987 372.146 204.799 378.546 202.628 388.625C202.462 389.398 202.222 390.162 201.981 391.061L201.998 391.069Z" fill="white"/>
<path d="M201.998 391.069C184.653 375.212 179.59 341.892 186.816 317.753C199.346 332.972 216.708 337.793 234.691 340.515C262.453 344.714 289.718 343.144 315.508 330.453C318.458 328.999 321.184 327.068 324.408 325.111C326.828 332.132 327.458 339.221 326.613 346.436C324.557 364.007 315.814 377.58 301.908 387.869C296.348 391.985 290.464 395.664 284.721 399.544C267.077 411.471 262.304 425.455 268.933 445.796C269.091 446.295 269.232 446.791 269.588 448C260.58 443.966 254 438.095 248.986 430.375C243.691 422.23 241.172 413.218 241.039 403.466C240.972 398.721 240.972 393.933 240.334 389.255C238.776 377.849 233.423 372.742 223.337 372.448C212.987 372.146 204.799 378.546 202.628 388.625C202.462 389.398 202.222 390.162 201.981 391.061L201.998 391.069Z" fill="url(#paint0_linear_1066_42)"/>
<path d="M103 313.731C103 313.731 154.362 288.707 205.867 288.707L244.7 168.507C246.154 162.694 250.399 158.744 255.191 158.744C259.983 158.744 264.228 162.694 265.682 168.507L304.516 288.707C365.516 288.707 407.382 313.731 407.382 313.731C407.382 313.731 320.14 76.0308 319.97 75.5539C317.466 68.5262 313.239 64 307.54 64H202.851C197.152 64 193.096 68.5262 190.422 75.5539C190.233 76.0218 103 313.731 103 313.731Z" fill="white"/>
</g>
<defs>
<linearGradient id="paint0_linear_1066_42" x1="183.629" y1="448" x2="351.119" y2="368.876" gradientUnits="userSpaceOnUse">
<stop stop-color="#D83333"/>
<stop offset="1" stop-color="#F041FF"/>
</linearGradient>
<clipPath id="clip0_1066_42">
<rect width="305" height="384" fill="white" transform="translate(103 64)"/>
</clipPath>
</defs>
</svg>
