<svg width="512" height="512" viewBox="0 0 512 512" fill="none" xmlns="http://www.w3.org/2000/svg">
<path d="M243.196 76H302.061V348.475C271.864 354.212 249.693 356.505 225.615 356.505C153.753 356.502 116.293 324.017 116.293 261.709C116.293 201.696 156.048 162.709 217.585 162.709C227.142 162.709 234.404 163.474 243.196 165.767V76ZM243.196 213.152C236.316 210.859 230.582 210.097 223.32 210.097C193.507 210.097 176.303 228.443 176.303 260.551C176.303 291.896 192.742 309.094 222.94 309.094C229.434 309.094 234.786 308.712 243.196 307.57V213.152Z" fill="white"/>
<path d="M395.701 166.903V303.362C395.701 350.379 392.258 372.93 381.939 392.423C372.382 411.157 359.768 423.003 333.778 436L279.117 410.01C305.11 397.775 317.722 387.079 325.748 370.635C334.158 353.819 336.838 334.325 336.838 283.104V166.903H395.701ZM336.835 76.3122H395.701V136.708H336.835V76.3122Z" fill="white"/>
</svg>
