<svg width="512" height="512" viewBox="0 0 512 512" fill="none" xmlns="http://www.w3.org/2000/svg">
<g clip-path="url(#clip0_1069_229)">
<path d="M256 436C355.411 436 436 355.411 436 256C436 156.589 355.411 76 256 76C156.589 76 76 156.589 76 256C76 355.411 156.589 436 256 436Z" fill="#0091E2"/>
<path d="M366.847 238.246C366.284 237.789 361.187 233.957 350.429 233.957C347.581 233.957 344.734 234.168 341.921 234.695C339.847 220.387 328.034 213.426 327.507 213.109L324.624 211.422L322.726 214.164C320.335 217.855 318.613 221.898 317.593 226.188C315.659 234.344 316.82 242.008 320.968 248.547C315.976 251.324 307.925 252.027 306.308 252.063H173.382C169.902 252.063 167.089 254.875 167.089 258.355C166.948 269.992 168.917 281.559 172.89 292.492C177.46 304.516 184.28 313.34 193.14 318.754C203.054 324.836 219.191 328.316 237.507 328.316C245.769 328.352 254.03 327.578 262.152 326.066C273.437 323.992 284.3 320.055 294.284 314.395C302.511 309.613 309.929 303.566 316.222 296.43C326.734 284.512 333.027 271.223 337.702 259.445H339.566C351.097 259.445 358.198 254.84 362.101 250.973C364.702 248.512 366.741 245.523 368.042 242.184L368.851 239.758L366.847 238.246ZM185.687 248.23H203.511C204.355 248.23 205.058 247.527 205.058 246.684V230.828C205.058 229.984 204.355 229.281 203.511 229.246H185.687C184.843 229.246 184.14 229.949 184.14 230.793V246.684C184.14 247.563 184.843 248.23 185.687 248.23ZM210.261 248.23H228.085C228.929 248.23 229.632 247.527 229.632 246.684V230.828C229.632 229.984 228.929 229.281 228.085 229.246H210.261C209.382 229.246 208.679 229.949 208.679 230.828V246.684C208.679 247.563 209.382 248.23 210.261 248.23ZM235.152 248.266H252.976C253.82 248.266 254.523 247.563 254.523 246.719V230.863C254.523 230.02 253.82 229.316 252.976 229.281H235.152C234.308 229.281 233.605 229.984 233.605 230.828V246.719C233.605 247.563 234.308 248.23 235.152 248.266ZM259.796 248.266H277.62C278.464 248.266 279.167 247.563 279.202 246.719V230.863C279.202 229.984 278.499 229.281 277.62 229.281H259.796C258.952 229.281 258.249 229.984 258.249 230.828V246.719C258.249 247.563 258.917 248.266 259.796 248.266ZM210.226 225.414H228.05C228.894 225.414 229.597 224.711 229.597 223.832V207.977C229.597 207.133 228.894 206.43 228.05 206.43H210.226C209.347 206.43 208.679 207.133 208.644 207.977V223.832C208.679 224.711 209.382 225.414 210.226 225.414ZM235.152 225.414H252.976C253.82 225.414 254.523 224.711 254.523 223.832V207.977C254.523 207.133 253.82 206.43 252.976 206.43H235.152C234.308 206.43 233.605 207.133 233.605 207.977V223.832C233.605 224.711 234.308 225.414 235.152 225.414ZM259.796 225.414H277.62C278.499 225.414 279.167 224.711 279.202 223.832V207.977C279.202 207.098 278.499 206.43 277.62 206.43H259.796C258.952 206.43 258.249 207.133 258.249 207.977V223.832C258.249 224.711 258.917 225.414 259.796 225.414ZM259.796 202.598H277.62C278.499 202.598 279.202 201.895 279.202 201.016V185.125C279.202 184.281 278.499 183.578 277.62 183.578H259.796C258.952 183.578 258.249 184.281 258.249 185.125V201.016C258.249 201.895 258.917 202.598 259.796 202.598ZM284.616 248.266H302.441C303.284 248.266 303.988 247.563 303.988 246.719V230.863C303.988 229.984 303.284 229.316 302.441 229.281H284.616C283.773 229.281 283.07 229.984 283.07 230.828V246.719C283.07 247.563 283.773 248.266 284.616 248.266Z" fill="white"/>
</g>
<defs>
<clipPath id="clip0_1069_229">
<rect width="360" height="360" fill="white" transform="translate(76 76)"/>
</clipPath>
</defs>
</svg>
