<svg width="512" height="512" viewBox="0 0 512 512" fill="none" xmlns="http://www.w3.org/2000/svg">
<g clip-path="url(#clip0_1069_250)">
<path d="M187.263 464C225.482 464 256.5 432.939 256.5 394.667V325.333H187.263C149.045 325.333 118.027 356.395 118.027 394.667C118.027 432.939 149.045 464 187.263 464Z" fill="#0ACF83"/>
<path d="M118.027 256C118.027 217.728 149.045 186.667 187.263 186.667H256.5V325.333H187.263C149.045 325.333 118.027 294.272 118.027 256Z" fill="#A259FF"/>
<path d="M118.027 117.333C118.027 79.0613 149.045 48 187.263 48H256.5V186.667H187.263C149.045 186.667 118.027 155.605 118.027 117.333Z" fill="#F24E1E"/>
<path d="M256.5 48H325.736C363.955 48 394.972 79.0613 394.972 117.333C394.972 155.605 363.955 186.667 325.736 186.667H256.5V48Z" fill="#FF7262"/>
<path d="M394.972 256C394.972 294.272 363.955 325.333 325.736 325.333C287.518 325.333 256.5 294.272 256.5 256C256.5 217.728 287.518 186.667 325.736 186.667C363.955 186.667 394.972 217.728 394.972 256Z" fill="#1ABCFE"/>
</g>
<defs>
<clipPath id="clip0_1069_250">
<rect width="277" height="416" fill="white" transform="translate(118 48)"/>
</clipPath>
</defs>
</svg>
