<svg width="512" height="512" viewBox="0 0 512 512" fill="none" xmlns="http://www.w3.org/2000/svg">
<path d="M137.285 363.277L178.768 97.833C179.275 94.5775 181.807 92.0112 185.055 91.4594C188.303 90.9076 191.54 92.4952 193.093 95.4006L235.994 175.417L253.094 142.858C254.418 140.341 257.029 138.765 259.874 138.765C262.718 138.765 265.329 140.341 266.653 142.858L382.426 363.276L137.285 363.277Z" fill="#FFA000"/>
<path d="M280.598 259.876L235.974 175.379L137.285 363.277L280.598 259.876Z" fill="#F57C00"/>
<path d="M382.428 363.277L350.655 166.664C350.175 163.841 348.16 161.522 345.431 160.647C342.702 159.773 339.716 160.501 337.689 162.525L137.285 363.274L248.174 425.46C255.137 429.348 263.618 429.348 270.581 425.46L382.428 363.274V363.277Z" fill="#FFCA28"/>
<path d="M350.656 166.664C350.176 163.841 348.161 161.522 345.432 160.647C342.703 159.773 339.717 160.501 337.69 162.525L297.915 202.402L266.637 142.857C265.313 140.34 262.702 138.763 259.857 138.763C257.013 138.763 254.402 140.34 253.077 142.857L235.977 175.415L193.075 95.4007C191.519 92.4944 188.279 90.9094 185.026 91.4654C181.774 92.0213 179.251 94.594 178.75 97.852L137.286 363.277H137.152L137.286 363.43L138.378 363.966L337.632 164.481C339.658 162.446 342.652 161.714 345.388 162.586C348.124 163.458 350.142 165.786 350.618 168.618L382.122 363.468L382.429 363.276L350.656 166.664ZM137.65 362.913L178.769 99.7292C179.27 96.4712 181.799 93.8984 185.048 93.3425C188.298 92.7866 191.539 94.3711 193.097 97.2778L235.995 177.294L253.095 144.736C254.419 142.218 257.03 140.642 259.875 140.642C262.719 140.642 265.33 142.218 266.654 144.736L297.297 203.014L137.65 362.913Z" fill="white" fill-opacity="0.2"/>
<path opacity="0.2" d="M270.582 423.586C263.618 427.474 255.138 427.474 248.174 423.586L137.553 361.573L137.285 363.277L248.174 425.444C255.137 429.332 263.618 429.332 270.581 425.444L382.428 363.277L382.14 361.516L270.582 423.586Z" fill="#A52714"/>
<path d="M350.339 166.705C349.86 163.882 347.852 161.562 345.133 160.693C342.414 159.824 339.438 160.547 337.418 162.57L297.779 202.427L266.614 142.91C265.294 140.393 262.692 138.818 259.858 138.818C257.023 138.818 254.422 140.393 253.102 142.91L236.059 175.454L193.309 95.4724C191.759 92.5675 188.529 90.9827 185.291 91.5389C182.053 92.0951 179.533 94.6657 179.034 97.923L137.715 363.231L248.216 425.371C255.155 429.257 263.606 429.257 270.545 425.371L382.001 363.231L350.339 166.705V166.705Z" fill="url(#paint0_linear_1066_85)"/>
<defs>
<linearGradient id="paint0_linear_1066_85" x1="129.189" y1="148.762" x2="434.036" y2="309.565" gradientUnits="userSpaceOnUse">
<stop stop-color="white" stop-opacity="0.1"/>
<stop offset="0.14" stop-color="white" stop-opacity="0.08"/>
<stop offset="0.61" stop-color="white" stop-opacity="0.02"/>
<stop offset="1" stop-color="white" stop-opacity="0"/>
</linearGradient>
</defs>
</svg>
