<svg width="512" height="512" viewBox="0 0 512 512" fill="none" xmlns="http://www.w3.org/2000/svg">
<mask id="mask0_1065_2" style="mask-type:luminance" maskUnits="userSpaceOnUse" x="109" y="76" width="292" height="360">
<path d="M400.465 242.118L303.56 339.058L400.465 435.997H289.731L192.792 339.058L289.731 242.118H400.465ZM289.731 76.0002L109.75 255.981L165.134 311.366L400.465 76.0002H289.731V76.0002Z" fill="white"/>
</mask>
<g mask="url(#mask0_1065_2)">
<path d="M192.828 339.058L248.178 394.442L400.467 242.118H289.733L192.828 339.058Z" fill="#39CEFD"/>
</g>
<mask id="mask1_1065_2" style="mask-type:luminance" maskUnits="userSpaceOnUse" x="109" y="76" width="292" height="360">
<path d="M400.465 242.118L303.56 339.058L400.465 435.997H289.731L192.792 339.058L289.731 242.118H400.465ZM289.731 76.0002L109.75 255.981L165.134 311.366L400.465 76.0002H289.731V76.0002Z" fill="white"/>
</mask>
<g mask="url(#mask1_1065_2)">
<path d="M289.731 76.0002H400.465L165.134 311.366L109.75 255.981L289.731 76.0002Z" fill="#39CEFD"/>
</g>
<mask id="mask2_1065_2" style="mask-type:luminance" maskUnits="userSpaceOnUse" x="109" y="76" width="292" height="360">
<path d="M400.465 242.118L303.56 339.058L400.465 435.997H289.731L192.792 339.058L289.731 242.118H400.465ZM289.731 76.0002L109.75 255.981L165.134 311.366L400.465 76.0002H289.731V76.0002Z" fill="white"/>
</mask>
<g mask="url(#mask2_1065_2)">
<path d="M248.176 394.442L289.731 435.963H400.465L303.56 339.058L248.176 394.442Z" fill="#03569B"/>
</g>
<mask id="mask3_1065_2" style="mask-type:luminance" maskUnits="userSpaceOnUse" x="109" y="76" width="292" height="360">
<path d="M400.465 242.118L303.56 339.058L400.465 435.997H289.731L192.792 339.058L289.731 242.118H400.465ZM289.731 76.0002L109.75 255.981L165.134 311.366L400.465 76.0002H289.731V76.0002Z" fill="white"/>
</mask>
<g mask="url(#mask3_1065_2)">
<path d="M330.316 365.987L303.56 339.058L248.176 394.442L330.316 365.987Z" fill="url(#paint0_linear_1065_2)"/>
</g>
<mask id="mask4_1065_2" style="mask-type:luminance" maskUnits="userSpaceOnUse" x="109" y="76" width="292" height="360">
<path d="M400.465 242.118L303.56 339.058L400.465 435.997H289.731L192.792 339.058L289.731 242.118H400.465ZM289.731 76.0002L109.75 255.981L165.134 311.366L400.465 76.0002H289.731V76.0002Z" fill="white"/>
</mask>
<g mask="url(#mask4_1065_2)">
<path d="M192.82 339.039L248.206 283.653L303.595 339.039L248.206 394.425L192.82 339.039Z" fill="#16B9FD"/>
</g>
<path d="M400.465 242.118L303.56 339.058L400.465 435.997H289.731L192.792 339.058L289.731 242.118H400.465ZM289.731 76.0002L109.75 255.981L165.134 311.366L400.465 76.0002H289.731Z" fill="url(#paint1_radial_1065_2)"/>
<defs>
<linearGradient id="paint0_linear_1065_2" x1="264.339" y1="405.13" x2="305.587" y2="363.881" gradientUnits="userSpaceOnUse">
<stop stop-color="#1A237E" stop-opacity="0.4"/>
<stop offset="1" stop-color="#1A237E" stop-opacity="0"/>
</linearGradient>
<radialGradient id="paint1_radial_1065_2" cx="0" cy="0" r="1" gradientUnits="userSpaceOnUse" gradientTransform="translate(117.917 100.537) scale(440.412 440.412)">
<stop stop-color="white" stop-opacity="0.1"/>
<stop offset="1" stop-color="white" stop-opacity="0"/>
</radialGradient>
</defs>
</svg>
