<svg width="512" height="512" viewBox="0 0 512 512" fill="none" xmlns="http://www.w3.org/2000/svg">
<path d="M431.569 239.749L272.249 80.435C263.08 71.2602 248.199 71.2602 239.016 80.435L205.935 113.521L247.901 155.487C257.657 152.195 268.838 154.403 276.611 162.176C284.424 169.998 286.616 181.274 283.242 191.062L323.688 231.511C333.473 228.137 344.766 230.317 352.577 238.145C363.503 249.063 363.503 266.762 352.577 277.685C349.98 280.283 346.897 282.344 343.504 283.75C340.111 285.156 336.473 285.88 332.8 285.88C329.127 285.88 325.49 285.156 322.097 283.75C318.704 282.344 315.621 280.283 313.024 277.685C309.123 273.782 306.464 268.811 305.381 263.4C304.298 257.988 304.841 252.377 306.939 247.273L269.223 209.556L269.217 308.823C271.953 310.171 274.452 311.956 276.614 314.107C287.535 325.025 287.535 342.719 276.614 353.66C265.69 364.578 247.985 364.578 237.073 353.66C226.152 342.722 226.152 325.028 237.073 314.107C239.69 311.487 242.802 309.413 246.228 308.008V207.822C242.799 206.421 239.686 204.346 237.073 201.72C228.8 193.453 226.808 181.312 231.052 171.149L189.678 129.775L80.4359 239.012C76.0286 243.42 73.5527 249.399 73.5527 255.633C73.5527 261.867 76.0286 267.845 80.4359 272.254L239.758 431.568C248.933 440.743 263.808 440.743 272.998 431.568L431.572 272.994C435.978 268.584 438.453 262.605 438.452 256.371C438.452 250.137 435.976 244.158 431.569 239.749Z" fill="#F34F29"/>
</svg>
