<svg width="512" height="512" viewBox="0 0 512 512" fill="none" xmlns="http://www.w3.org/2000/svg">
<g clip-path="url(#clip0_1066_113)">
<path d="M317.559 127.408H150.915V182.416H95.8711V435.964H317.559V405.184V127.408Z" fill="#BDBEC0"/>
<path d="M150.879 127.624L95.8711 182.56H150.879V127.624Z" fill="#E2E3E4"/>
<path d="M286.275 192.676H127.191V204.556H286.275V192.676Z" fill="white"/>
<path opacity="0.35" d="M317.559 405.4V436.18H95.8711V182.632L317.559 405.4Z" fill="white"/>
<path d="M286.275 351.22H127.191V363.1H286.275V351.22Z" fill="white"/>
<path d="M286.275 319.792H127.191V331.672H286.275V319.792Z" fill="white"/>
<path d="M286.275 287.824H127.191V299.704H286.275V287.824Z" fill="white"/>
<path d="M286.275 255.856H127.191V267.736H286.275V255.856Z" fill="white"/>
<path d="M286.275 224.788H127.191V236.668H286.275V224.788Z" fill="white"/>
<path d="M175.215 210.928V104.296C175.215 88.744 187.959 76 203.511 76H387.975C403.527 76 416.271 88.744 416.271 104.296V210.892C416.271 226.444 403.527 239.188 387.975 239.188H215.859L175.251 262.012V210.928H175.215Z" fill="#4280ED"/>
<path d="M286.275 383.188H127.191V395.068H286.275V383.188Z" fill="white"/>
<path opacity="0.8" d="M317.775 239.08H216.003L175.215 262.084L317.559 405.472L317.775 239.08Z" fill="#7F7F7F"/>
<path d="M239.907 142.816C238.647 142.816 237.423 142.996 236.271 143.356C235.875 132.772 245.703 121.648 245.703 121.648C246.315 120.964 246.675 120.064 246.675 119.056C246.675 116.896 244.947 115.168 242.787 115.168C241.635 115.168 240.627 115.672 239.907 116.428L239.871 116.392C239.871 116.392 219.207 140.332 228.243 159.592C230.007 164.272 234.543 167.62 239.871 167.62C246.747 167.62 252.291 162.04 252.291 155.2C252.327 148.396 246.747 142.816 239.907 142.816Z" fill="white"/>
<path d="M271.083 142.816C269.823 142.816 268.599 142.996 267.447 143.356C267.051 132.772 276.879 121.648 276.879 121.648C277.491 120.964 277.851 120.064 277.851 119.056C277.851 116.896 276.123 115.168 273.963 115.168C272.811 115.168 271.803 115.672 271.083 116.428L271.047 116.392C271.047 116.392 250.383 140.332 259.419 159.592C261.183 164.272 265.719 167.62 271.047 167.62C277.923 167.62 283.467 162.04 283.467 155.2C283.503 148.396 277.923 142.816 271.083 142.816Z" fill="white"/>
<path d="M351.654 140.044C352.914 140.044 354.138 139.864 355.29 139.504C355.686 150.088 345.858 161.212 345.858 161.212C345.246 161.896 344.886 162.796 344.886 163.804C344.886 165.964 346.614 167.692 348.774 167.692C349.926 167.692 350.934 167.188 351.654 166.432L351.69 166.468C351.69 166.468 372.354 142.528 363.318 123.268C361.554 118.588 357.018 115.24 351.69 115.24C344.814 115.24 339.27 120.82 339.27 127.66C339.234 134.5 344.778 140.044 351.654 140.044Z" fill="white"/>
<path d="M320.478 140.044C321.738 140.044 322.962 139.864 324.114 139.504C324.51 150.088 314.682 161.212 314.682 161.212C314.07 161.896 313.71 162.796 313.71 163.804C313.71 165.964 315.438 167.692 317.598 167.692C318.75 167.692 319.758 167.188 320.478 166.432L320.514 166.468C320.514 166.468 341.178 142.528 332.142 123.268C330.378 118.588 325.842 115.24 320.514 115.24C313.638 115.24 308.094 120.82 308.094 127.66C308.058 134.5 313.602 140.044 320.478 140.044Z" fill="white"/>
</g>
<defs>
<clipPath id="clip0_1066_113">
<rect width="360" height="360" fill="white" transform="translate(76 76)"/>
</clipPath>
</defs>
</svg>
