<svg width="512" height="512" viewBox="0 0 512 512" fill="none" xmlns="http://www.w3.org/2000/svg">
<path d="M190.169 292.936C189.505 291.781 189.045 290.519 188.811 289.208C189.071 290.514 189.533 291.771 190.169 292.936ZM191.84 294.997C192.482 295.633 193.204 296.185 194.005 296.581C193.205 296.173 192.476 295.638 191.846 294.997H191.84Z" fill="#083042"/>
<path d="M256.988 365.748H256.584C252.53 365.765 248.538 364.755 244.981 362.812L163.517 317.284C158.71 314.59 155.753 309.595 155.753 304.198V211.565C155.753 207.596 156.472 203.79 158.152 200.46L94.4541 165.009C91.815 170.559 90.4564 176.826 90.5344 183.411V336.403C90.581 340.828 91.7977 345.161 94.061 348.964C96.3243 352.767 99.5535 355.903 103.421 358.054L237.78 433.244C243.706 436.574 250.346 438.161 256.907 438.161V438.083C257.066 428.486 256.988 390.015 256.988 365.748Z" fill="#083042"/>
<path d="M320.924 217.266L320.441 216.555C320.042 216 319.646 215.523 319.247 214.97C319.646 215.445 320.042 216.002 320.441 216.555C320.638 216.766 320.801 217.004 320.924 217.266ZM253.867 180.15C254.272 180.15 254.593 180.072 254.995 180.072C254.593 180.15 254.191 180.15 253.867 180.15Z" fill="#3DDB85"/>
<path d="M158.072 200.376C159.86 196.676 162.7 193.586 166.238 191.496L242.897 146.682C246.409 144.619 250.399 143.511 254.472 143.469C258.544 143.428 262.556 144.454 266.109 146.445L343.572 189.831C347.049 191.771 350.034 194.483 352.296 197.76L414.956 160.725C411.229 155.36 406.331 150.912 400.633 147.717L272.668 76.0991C266.81 72.8263 260.199 71.1411 253.489 71.2106C246.78 71.2801 240.205 73.1017 234.416 76.4951L107.899 150.411C102.06 153.823 97.377 158.907 94.4551 165.006L158.072 200.376Z" fill="#3DDC84"/>
<path d="M190.317 218.225C190.479 217.907 190.638 217.589 190.803 217.358C190.638 217.673 190.482 217.907 190.317 218.225Z" fill="#3DDB85"/>
<path d="M414.875 160.725L352.215 197.76C354.614 201.249 356.057 205.371 356.132 209.579V297.772C356.18 301.812 355.154 305.791 353.158 309.303C351.161 312.815 348.267 315.733 344.772 317.758L268.106 362.577C264.723 364.552 260.896 365.642 256.98 365.748C257.064 389.94 257.064 428.408 256.902 438.005V438.083C263.622 438.009 270.21 436.205 276.03 432.846L402.549 358.848C414.314 351.949 421.518 339.415 421.356 325.852V180.315C421.275 173.256 418.876 166.515 414.875 160.725Z" fill="#4285F4"/>
<path d="M322.377 288.337C322.296 288.499 322.296 288.658 322.215 288.823C322.306 288.676 322.361 288.51 322.377 288.337ZM321.573 218.306C321.408 217.907 321.168 217.589 320.929 217.193C321.168 217.589 321.411 217.988 321.573 218.306ZM264.113 327.04L315.488 296.983L264.113 327.046V327.04ZM321.732 290.161C321.57 290.56 321.33 290.956 321.166 291.355C321.33 290.878 321.489 290.479 321.732 290.161Z" fill="#4285F4"/>
<path d="M190.087 218.936C189.435 220.477 189.031 222.111 188.888 223.778C188.807 224.408 188.807 225.044 188.807 225.761V287.86C188.807 288.335 188.807 288.733 188.888 289.21C189.049 290.555 189.529 291.826 190.246 292.939C190.729 293.731 191.287 294.361 191.85 294.997C192.492 295.633 193.209 296.185 194.007 296.587L248.588 327.121C250.962 328.433 253.633 329.115 256.346 329.101H256.91C259.454 329.015 261.934 328.279 264.113 326.962L315.488 296.902C315.809 296.743 316.049 296.503 316.37 296.347C316.931 295.951 317.491 295.552 317.971 295.075C318.723 294.393 319.42 293.653 320.05 292.855C320.449 292.3 320.85 291.748 321.171 291.19C321.408 290.797 321.573 290.398 321.729 290C321.891 289.609 322.134 289.129 322.293 288.655C322.371 288.494 322.371 288.335 322.452 288.178C322.936 286.638 323.179 285.032 323.172 283.418V224.33C323.172 223.223 323.01 222.191 322.773 221.162C322.614 220.445 322.368 219.809 322.131 219.173L321.651 218.225C321.492 217.826 321.246 217.511 321.009 217.112L320.53 216.401C320.131 215.843 319.729 215.369 319.33 214.814C318.026 213.295 316.452 212.031 314.688 211.085L262.755 181.983C261.859 181.478 260.92 181.053 259.951 180.711C258.65 180.314 257.305 180.075 255.947 180H254.907C254.511 180 254.19 180 253.791 180.075C252.871 180.157 251.96 180.316 251.068 180.552C250.909 180.63 250.75 180.63 250.588 180.714C249.388 181.032 248.267 181.584 247.145 182.217L195.77 212.279C194.277 213.152 192.97 214.311 191.926 215.69C191.53 216.245 191.128 216.8 190.807 217.355C190.648 217.673 190.489 217.91 190.327 218.228L190.087 218.936Z" fill="#D6F0FF"/>
<path d="M256.901 329.098H256.341C253.626 329.111 250.954 328.431 248.576 327.121L194.001 296.584C193.218 296.147 192.491 295.614 191.839 294.997C191.214 294.386 190.675 293.691 190.238 292.934C189.573 291.778 189.114 290.517 188.879 289.205C188.795 288.733 188.795 288.335 188.795 287.86V225.755C188.795 225.122 188.795 224.411 188.879 223.772C189.032 222.11 189.434 220.477 190.079 218.934L175.351 209.975L158.065 200.379C156.464 203.709 155.666 207.513 155.666 211.481V304.117C155.714 306.785 156.454 309.394 157.815 311.689C159.176 313.983 161.11 315.885 163.427 317.206L244.819 362.809C248.363 364.786 252.364 365.799 256.422 365.745H256.826C256.826 353.926 256.742 345.52 256.742 345.52L256.901 329.098Z" fill="#083042"/>
<path d="M256.901 329.098H256.341C253.626 329.111 250.954 328.431 248.576 327.121L194.001 296.584C193.218 296.147 192.491 295.614 191.839 294.997C191.214 294.386 190.675 293.691 190.238 292.934C189.573 291.778 189.114 290.517 188.879 289.205C188.795 288.733 188.795 288.335 188.795 287.86V225.755C188.795 225.122 188.795 224.411 188.879 223.772C189.032 222.11 189.434 220.477 190.079 218.934L175.351 209.975L158.065 200.379C156.464 203.709 155.666 207.513 155.666 211.481V304.117C155.714 306.785 156.454 309.394 157.815 311.689C159.176 313.983 161.11 315.885 163.427 317.206L244.819 362.809C248.363 364.786 252.364 365.799 256.422 365.745H256.826C256.826 353.926 256.742 345.52 256.742 345.52L256.901 329.098Z" fill="#041619"/>
<path d="M343.487 189.831L266.021 146.442C262.469 144.452 258.457 143.427 254.385 143.469C250.313 143.511 246.323 144.619 242.813 146.682L166.153 191.499C162.596 193.567 159.748 196.664 157.984 200.381L175.357 209.978L190.079 218.936L190.316 218.225C190.478 217.904 190.637 217.589 190.796 217.352C191.117 216.797 191.519 216.242 191.917 215.687C192.958 214.337 194.239 213.23 195.762 212.276L247.134 182.214C248.233 181.598 249.38 181.095 250.577 180.711C250.739 180.633 250.898 180.633 251.057 180.549C251.947 180.306 252.858 180.15 253.777 180.075C254.176 180.075 254.497 179.994 254.898 179.994H255.939C257.295 180.081 258.636 180.315 259.94 180.705C260.922 181.017 261.862 181.442 262.741 181.98L314.674 211.088C316.427 212.053 317.999 213.313 319.322 214.814C319.718 215.288 320.122 215.846 320.518 216.398L321.001 217.11L334.284 208.31L352.289 197.604C349.968 194.508 347.008 191.733 343.487 189.831Z" fill="#3DDB85"/>
<path d="M343.487 189.831L266.021 146.442C262.469 144.452 258.457 143.427 254.385 143.469C250.313 143.511 246.323 144.619 242.813 146.682L166.153 191.499C162.596 193.567 159.748 196.664 157.984 200.381L175.357 209.978L190.079 218.936L190.316 218.225C190.478 217.904 190.637 217.589 190.796 217.352C191.117 216.797 191.519 216.242 191.917 215.687C192.958 214.337 194.239 213.23 195.762 212.276L247.134 182.214C248.233 181.598 249.38 181.095 250.577 180.711C250.739 180.633 250.898 180.633 251.057 180.549C251.947 180.306 252.858 180.15 253.777 180.075C254.176 180.075 254.497 179.994 254.898 179.994H255.939C257.295 180.081 258.636 180.315 259.94 180.705C260.922 181.017 261.862 181.442 262.741 181.98L314.674 211.088C316.427 212.053 317.999 213.313 319.322 214.814C319.718 215.288 320.122 215.846 320.518 216.398L321.001 217.11L334.284 208.31L352.289 197.604C349.968 194.508 347.008 191.733 343.487 189.831Z" fill="#37BF6E"/>
<path d="M320.923 217.271C321.163 217.665 321.325 217.982 321.562 218.381L322.044 219.332C322.718 220.968 323.071 222.718 323.085 224.486V283.577C323.091 285.19 322.847 286.795 322.362 288.335C322.284 288.491 322.284 288.652 322.203 288.809C322.051 289.273 321.865 289.725 321.645 290.161C321.481 290.552 321.241 290.951 321.082 291.347C320.764 291.904 320.362 292.457 319.96 293.014C319.331 293.811 318.636 294.552 317.882 295.232C317.402 295.709 316.841 296.105 316.28 296.503C315.96 296.66 315.723 296.899 315.402 297.058L264.024 327.115C261.814 328.362 259.352 329.095 256.82 329.26V345.676C256.82 345.676 256.82 354.085 256.901 365.902C260.823 365.832 264.658 364.739 268.027 362.731L344.687 317.914C351.812 313.714 356.134 306.097 356.053 297.931V209.736C355.975 205.452 354.535 201.405 352.136 197.916L334.124 208.626L320.923 217.271Z" fill="#4285F4"/>
<path d="M320.923 217.271C321.163 217.665 321.325 217.982 321.562 218.381L322.044 219.332C322.718 220.968 323.071 222.718 323.085 224.486V283.577C323.091 285.19 322.847 286.795 322.362 288.335C322.284 288.491 322.284 288.652 322.203 288.809C322.051 289.273 321.865 289.725 321.645 290.161C321.481 290.552 321.241 290.951 321.082 291.347C320.764 291.904 320.362 292.457 319.96 293.014C319.331 293.811 318.636 294.552 317.882 295.232C317.402 295.709 316.841 296.105 316.28 296.503C315.96 296.66 315.723 296.899 315.402 297.058L264.024 327.115C261.814 328.362 259.352 329.095 256.82 329.26V345.676C256.82 345.676 256.82 354.085 256.901 365.902C260.823 365.832 264.658 364.739 268.027 362.731L344.687 317.914C351.812 313.714 356.134 306.097 356.053 297.931V209.736C355.975 205.452 354.535 201.405 352.136 197.916L334.124 208.626L320.923 217.271Z" fill="#3870B2"/>
<path d="M250.667 180.792C249.465 181.11 248.343 181.665 247.228 182.295L195.85 212.357L247.222 182.301C248.29 181.637 249.449 181.131 250.662 180.798L250.667 180.792Z" fill="#D6F0FF"/>
<path opacity="0.1" d="M250.667 180.792C249.465 181.11 248.343 181.665 247.228 182.295L195.85 212.357L247.222 182.301C248.29 181.637 249.449 181.131 250.662 180.798L250.667 180.792Z" fill="black"/>
<path d="M322.045 219.257C322.292 219.904 322.504 220.564 322.681 221.234C322.522 220.601 322.276 219.968 322.039 219.257H322.045Z" fill="#D6F0FF"/>
<path opacity="0.1" d="M322.045 219.257C322.292 219.904 322.504 220.564 322.681 221.234C322.522 220.601 322.276 219.968 322.039 219.257H322.045Z" fill="black"/>
</svg>
