<svg width="512" height="512" viewBox="0 0 512 512" fill="none" xmlns="http://www.w3.org/2000/svg">
<path d="M78.8883 358.825C80.745 362.126 83.427 364.602 86.7278 366.458L245.582 458.057C252.184 461.977 260.229 461.977 266.625 458.057L425.479 366.458C432.08 362.745 436 355.731 436 348.097V164.9C436 157.266 432.08 150.252 425.479 146.539L266.625 54.9398C260.023 51.0201 251.977 51.0201 245.582 54.9398L86.7278 146.539C79.9198 150.252 76 157.266 76 164.9V348.304C76 352.017 76.8252 355.524 78.8883 358.825Z" fill="#009639"/>
<path d="M205.149 326.436C205.149 337.783 196.072 346.86 184.725 346.86C173.378 346.86 164.301 337.783 164.301 326.436V186.356C164.301 175.421 173.997 166.551 187.407 166.551C197.103 166.551 208.45 170.47 215.258 178.929L221.447 186.356L306.857 288.476V186.768C306.857 175.421 315.934 166.344 327.281 166.344C338.628 166.344 347.705 175.421 347.705 186.768V326.849C347.705 337.783 338.008 346.654 324.599 346.654C314.903 346.654 303.556 342.734 296.748 334.276L205.149 224.934V326.436Z" fill="white"/>
</svg>
