<svg width="512" height="512" viewBox="0 0 512 512" fill="none" xmlns="http://www.w3.org/2000/svg">
<path d="M428.015 246.562C431.971 255.386 434.481 264.819 435.508 274.442C436.497 284.065 436.003 293.803 433.949 303.274C431.933 312.745 428.433 321.835 423.564 330.203C420.369 335.795 416.604 341.044 412.267 345.874C407.969 350.667 403.176 355.003 397.965 358.807C392.716 362.61 387.125 365.805 381.191 368.43C375.295 371.016 369.133 372.994 362.819 374.288C359.852 383.492 355.439 392.203 349.734 400.038C344.066 407.874 337.181 414.758 329.346 420.426C321.51 426.131 312.837 430.543 303.632 433.51C294.427 436.515 284.804 437.998 275.104 437.998C268.676 438.037 262.209 437.352 255.895 436.059C249.619 434.727 243.457 432.711 237.561 430.087C231.665 427.462 226.074 424.191 220.862 420.388C215.689 416.584 210.897 412.21 206.636 407.379C197.127 409.433 187.389 409.928 177.766 408.939C168.142 407.912 158.709 405.401 149.846 401.446C141.022 397.528 132.844 392.203 125.654 385.698C118.465 379.194 112.341 371.587 107.511 363.219C104.277 357.628 101.615 351.732 99.5988 345.608C97.5828 339.484 96.2515 333.17 95.5668 326.742C94.8821 320.352 94.9202 313.886 95.6048 307.458C96.2895 301.068 97.6969 294.754 99.7129 288.63C93.2465 281.441 87.9213 273.263 83.9654 264.439C80.0475 255.576 77.499 246.181 76.51 236.558C75.483 226.935 76.0155 217.197 78.0315 207.726C80.0475 198.255 83.5469 189.165 88.4157 180.797C91.6109 175.205 95.3766 169.918 99.6749 165.126C103.973 160.333 108.804 155.997 114.015 152.193C119.226 148.39 124.856 145.157 130.752 142.57C136.685 139.946 142.847 138.006 149.162 136.712C152.129 127.47 156.541 118.797 162.209 110.962C167.914 103.126 174.799 96.2418 182.635 90.5363C190.47 84.8689 199.143 80.4567 208.348 77.4518C217.553 74.485 227.177 72.9635 236.876 73.0016C243.305 72.9635 249.771 73.6102 256.085 74.9414C262.399 76.2727 268.562 78.2506 274.457 80.8751C280.353 83.5377 285.945 86.7707 291.156 90.5744C296.367 94.4161 301.16 98.7522 305.42 103.583C314.891 101.567 324.629 101.072 334.252 102.061C343.876 103.05 353.271 105.599 362.134 109.516C370.959 113.472 379.137 118.759 386.326 125.264C393.515 131.73 399.639 139.299 404.47 147.705C407.703 153.258 410.365 159.154 412.381 165.316C414.397 171.44 415.767 177.754 416.413 184.182C417.098 190.61 417.098 197.076 416.375 203.504C415.691 209.932 414.283 216.247 412.267 222.37C418.772 229.559 424.059 237.699 428.015 246.562ZM301.274 408.939C309.566 405.515 317.097 400.457 323.45 394.105C329.802 387.752 334.861 380.221 338.284 371.891C341.708 363.599 343.495 354.699 343.495 345.722V260.901C343.47 260.825 343.445 260.736 343.419 260.635C343.394 260.559 343.356 260.483 343.305 260.407C343.255 260.331 343.191 260.267 343.115 260.217C343.039 260.14 342.963 260.09 342.887 260.064L312.191 242.339V344.809C312.191 345.836 312.038 346.901 311.772 347.89C311.506 348.917 311.126 349.868 310.593 350.781C310.06 351.694 309.452 352.531 308.691 353.253C307.952 353.991 307.121 354.63 306.219 355.155L233.529 397.109C232.92 397.49 231.893 398.022 231.361 398.327C234.366 400.875 237.637 403.119 241.06 405.097C244.522 407.075 248.097 408.749 251.825 410.118C255.553 411.449 259.394 412.476 263.274 413.161C267.192 413.845 271.148 414.188 275.104 414.188C284.081 414.188 292.982 412.4 301.274 408.939ZM128.165 351.352C132.691 359.149 138.663 365.92 145.776 371.397C152.927 376.874 161.029 380.868 169.702 383.188C178.375 385.508 187.427 386.117 196.328 384.938C205.229 383.759 213.787 380.868 221.585 376.38L295.074 333.969L295.264 333.779C295.315 333.728 295.353 333.652 295.378 333.551C295.429 333.475 295.467 333.399 295.492 333.322V297.568L206.789 348.879C205.876 349.412 204.925 349.792 203.936 350.096C202.909 350.363 201.882 350.477 200.817 350.477C199.79 350.477 198.763 350.363 197.736 350.096C196.747 349.792 195.758 349.412 194.845 348.879L122.155 306.887C121.508 306.507 120.557 305.936 120.025 305.594C119.34 309.512 118.998 313.467 118.998 317.423C118.998 321.379 119.378 325.335 120.063 329.253C120.748 333.132 121.813 336.974 123.144 340.701C124.513 344.429 126.187 348.004 128.165 351.428V351.352ZM109.07 192.74C104.582 200.538 101.691 209.134 100.512 218.034C99.3325 226.935 99.9411 235.949 102.261 244.66C104.582 253.332 108.576 261.434 114.053 268.585C119.53 275.697 126.339 281.669 134.099 286.157L207.549 328.606C207.625 328.631 207.714 328.657 207.816 328.682H208.082C208.183 328.682 208.272 328.657 208.348 328.606C208.424 328.581 208.5 328.543 208.576 328.492L239.387 310.691L150.683 259.494C149.808 258.961 148.972 258.315 148.211 257.592C147.474 256.853 146.835 256.022 146.309 255.12C145.814 254.207 145.396 253.256 145.13 252.229C144.863 251.24 144.711 250.213 144.749 249.148V162.767C141.022 164.137 137.408 165.81 133.985 167.788C130.561 169.804 127.328 172.086 124.285 174.635C121.28 177.183 118.465 179.998 115.917 183.041C113.368 186.046 111.124 189.317 109.146 192.74H109.07ZM361.373 251.468C362.286 252.001 363.123 252.609 363.884 253.37C364.606 254.093 365.253 254.93 365.785 255.842C366.28 256.755 366.698 257.744 366.965 258.733C367.193 259.76 367.345 260.787 367.307 261.852V348.233C379.517 343.744 390.168 335.871 398.041 325.525C405.953 315.179 410.708 302.817 411.811 289.885C412.914 276.953 410.327 263.944 404.317 252.419C398.308 240.894 389.141 231.309 377.881 224.843L304.431 182.394C304.355 182.369 304.266 182.343 304.165 182.318H303.898C303.822 182.343 303.734 182.369 303.632 182.394C303.556 182.42 303.48 182.458 303.404 182.508L272.746 200.233L361.449 251.468H361.373ZM391.993 205.444H391.955V205.482L391.993 205.444ZM391.955 205.406C394.161 192.626 392.678 179.465 387.657 167.484C382.674 155.502 374.344 145.195 363.693 137.739C353.043 130.322 340.49 126.062 327.52 125.492C314.511 124.959 301.654 128.116 290.395 134.582L216.945 176.993C216.869 177.044 216.805 177.107 216.754 177.183L216.602 177.411C216.577 177.487 216.552 177.576 216.526 177.678C216.501 177.754 216.488 177.842 216.488 177.944V213.394L305.192 162.159C306.105 161.626 307.094 161.246 308.083 160.942C309.11 160.675 310.137 160.561 311.164 160.561C312.229 160.561 313.256 160.675 314.283 160.942C315.272 161.246 316.223 161.626 317.135 162.159L389.825 204.151C390.472 204.531 391.423 205.064 391.955 205.406ZM199.752 166.153C199.752 165.126 199.904 164.099 200.17 163.072C200.436 162.083 200.817 161.094 201.349 160.181C201.882 159.306 202.49 158.469 203.251 157.709C203.974 156.986 204.811 156.339 205.724 155.845L278.413 113.891C279.098 113.472 280.049 112.94 280.581 112.674C270.616 104.344 258.444 99.0185 245.549 97.3829C232.654 95.7093 219.569 97.7633 207.816 103.279C196.024 108.794 186.058 117.58 179.097 128.535C172.136 139.527 168.447 152.231 168.447 165.24V250.061C168.472 250.162 168.497 250.251 168.523 250.327C168.548 250.403 168.586 250.479 168.637 250.555C168.688 250.631 168.751 250.707 168.827 250.784C168.878 250.834 168.954 250.885 169.055 250.936L199.752 268.661V166.153ZM216.412 278.246L255.933 301.068L295.454 278.246V232.64L255.971 209.818L216.45 232.64L216.412 278.246Z" fill="white"/>
</svg>
