<svg width="512" height="512" viewBox="0 0 512 512" fill="none" xmlns="http://www.w3.org/2000/svg">
<path d="M50 255.5C50 315.491 142.454 364.129 256.5 364.129C370.546 364.129 463 315.491 463 255.5C463 195.509 370.543 146.871 256.5 146.871C142.454 146.871 50 195.509 50 255.5Z" fill="url(#paint0_radial_1070_263)"/>
<path d="M256.5 356.062C366.09 356.062 454.934 311.036 454.934 255.5C454.934 199.958 366.09 154.938 256.5 154.938C146.91 154.938 58.0664 199.958 58.0664 255.5C58.0664 311.036 146.91 356.062 256.5 356.062Z" fill="#777BB3"/>
<path d="M162.192 267.967C171.204 267.967 177.928 266.306 182.184 263.031C186.398 259.785 189.305 254.167 190.831 246.333C192.251 239.009 191.709 233.898 189.218 231.136C186.675 228.316 181.174 226.887 172.869 226.887H158.466L150.486 267.967H162.192ZM115.088 318.57C114.757 318.569 114.431 318.496 114.132 318.354C113.834 318.213 113.57 318.007 113.36 317.752C113.151 317.496 113 317.198 112.919 316.877C112.839 316.557 112.83 316.222 112.894 315.898L134.05 207.04C134.15 206.531 134.424 206.073 134.824 205.743C135.224 205.413 135.726 205.232 136.244 205.23H181.849C196.181 205.23 206.848 209.121 213.556 216.797C220.293 224.509 222.377 235.298 219.741 248.853C218.667 254.374 216.821 259.501 214.256 264.096C211.586 268.821 208.179 273.091 204.163 276.744C199.224 281.364 193.632 284.72 187.556 286.691C181.581 288.64 173.902 289.627 164.745 289.627H146.276L141.004 316.756C140.904 317.267 140.63 317.727 140.229 318.058C139.827 318.389 139.323 318.569 138.803 318.57H115.088Z" fill="black"/>
<path d="M160.315 229.126H172.869C182.894 229.126 186.376 231.327 187.56 232.64C189.519 234.815 189.893 239.406 188.628 245.907C187.212 253.19 184.585 258.356 180.82 261.253C176.967 264.221 170.695 265.725 162.193 265.725H153.204L160.318 229.129L160.315 229.126ZM181.849 202.991H136.248C135.208 202.991 134.201 203.352 133.398 204.013C132.595 204.674 132.047 205.594 131.847 206.614L110.69 315.475C110.565 316.124 110.585 316.792 110.748 317.432C110.911 318.072 111.214 318.668 111.634 319.177C112.054 319.687 112.582 320.097 113.179 320.379C113.776 320.661 114.428 320.808 115.088 320.809H138.803C139.843 320.808 140.85 320.446 141.653 319.784C142.455 319.123 143.002 318.203 143.201 317.182L148.122 291.867H164.742C174.138 291.867 182.049 290.841 188.254 288.821C194.633 286.749 200.502 283.236 205.697 278.376C209.879 274.567 213.429 270.115 216.212 265.189C218.893 260.391 220.823 255.035 221.939 249.279C224.714 235.008 222.459 223.583 215.241 215.323C208.091 207.137 196.856 202.988 181.849 202.988V202.991ZM147.767 270.203H162.193C171.753 270.203 178.874 268.406 183.553 264.799C188.234 261.198 191.387 255.184 193.032 246.759C194.597 238.667 193.884 232.959 190.887 229.633C187.883 226.309 181.881 224.644 172.869 224.644H156.62L147.767 270.203ZM181.852 207.463C195.572 207.463 205.577 211.067 211.869 218.265C218.161 225.467 220.051 235.518 217.548 248.421C216.509 253.738 214.763 258.598 212.305 262.999C209.839 267.406 206.626 271.433 202.654 275.088C197.917 279.519 192.661 282.677 186.87 284.558C181.081 286.443 173.705 287.382 164.745 287.382H144.431L138.807 316.324H115.091L136.251 207.463H181.852Z" fill="white"/>
<path d="M274.113 289.627C273.782 289.628 273.456 289.555 273.157 289.414C272.857 289.273 272.593 289.068 272.383 288.813C272.172 288.558 272.021 288.259 271.94 287.939C271.859 287.618 271.849 287.284 271.913 286.959L281.27 238.793C282.163 234.211 281.944 230.926 280.657 229.533C279.866 228.684 277.498 227.261 270.493 227.261H253.534L241.77 287.817C241.669 288.327 241.394 288.786 240.992 289.116C240.59 289.445 240.086 289.625 239.566 289.624H216.045C215.714 289.624 215.388 289.552 215.089 289.411C214.79 289.27 214.526 289.065 214.315 288.811C214.104 288.556 213.953 288.258 213.871 287.938C213.789 287.618 213.779 287.283 213.841 286.959L235.001 178.098C235.101 177.588 235.375 177.129 235.777 176.799C236.178 176.468 236.682 176.288 237.201 176.288H260.723C261.053 176.288 261.38 176.36 261.679 176.501C261.978 176.642 262.242 176.847 262.453 177.101C262.663 177.356 262.815 177.654 262.897 177.974C262.979 178.294 262.989 178.629 262.927 178.953L257.822 205.23H276.062C289.959 205.23 299.38 207.676 304.869 212.719C310.46 217.859 312.209 226.077 310.057 237.154L300.213 287.817C300.112 288.327 299.837 288.785 299.436 289.115C299.035 289.444 298.532 289.624 298.012 289.624H274.113V289.627Z" fill="black"/>
<path d="M260.727 174.045H237.202C236.161 174.046 235.153 174.408 234.351 175.069C233.548 175.731 233 176.651 232.801 177.672L211.644 286.53C211.519 287.179 211.538 287.847 211.701 288.487C211.864 289.128 212.166 289.724 212.586 290.234C213.006 290.744 213.534 291.154 214.131 291.437C214.729 291.719 215.381 291.866 216.042 291.867H239.567C240.607 291.866 241.615 291.504 242.418 290.843C243.221 290.181 243.769 289.261 243.968 288.24L255.38 229.5H270.487C277.482 229.5 278.953 230.994 279.008 231.062C279.434 231.514 279.992 233.627 279.07 238.367L269.713 286.53C269.587 287.179 269.606 287.847 269.77 288.488C269.933 289.129 270.235 289.725 270.656 290.235C271.076 290.745 271.604 291.156 272.202 291.438C272.8 291.72 273.453 291.866 274.114 291.867H298.016C299.056 291.866 300.063 291.503 300.865 290.842C301.667 290.18 302.215 289.261 302.414 288.24L312.258 237.583C314.565 225.69 312.59 216.772 306.386 211.07C300.462 205.63 290.543 202.988 276.062 202.988H260.543L265.128 179.385C265.254 178.736 265.235 178.067 265.072 177.426C264.909 176.785 264.607 176.188 264.186 175.678C263.765 175.168 263.237 174.757 262.639 174.474C262.041 174.192 261.388 174.046 260.727 174.045ZM260.727 178.53L255.103 207.466H276.062C289.249 207.466 298.348 209.77 303.349 214.371C308.36 218.972 309.857 226.422 307.86 236.731L298.013 287.385H274.114L283.474 239.219C284.539 233.74 284.145 230.004 282.296 228.01C280.447 226.019 276.511 225.022 270.493 225.022H251.686L239.567 287.382H216.039L237.199 178.521H260.727V178.53Z" fill="white"/>
<path d="M347.283 267.967C356.295 267.967 363.022 266.306 367.281 263.031C371.489 259.785 374.399 254.167 375.925 246.333C377.345 239.009 376.806 233.898 374.312 231.136C371.769 228.316 366.268 226.887 357.963 226.887H343.563L335.577 267.967H347.283ZM300.188 318.57C299.857 318.57 299.53 318.497 299.23 318.356C298.931 318.215 298.667 318.01 298.456 317.754C298.246 317.499 298.095 317.2 298.013 316.879C297.932 316.558 297.924 316.223 297.987 315.898L319.144 207.04C319.244 206.53 319.518 206.071 319.92 205.741C320.321 205.411 320.825 205.23 321.345 205.23H366.946C381.278 205.23 391.945 209.121 398.65 216.797C405.39 224.509 407.471 235.298 404.835 248.853C403.828 254.193 401.977 259.338 399.353 264.096C396.682 268.821 393.275 273.09 389.26 276.744C384.324 281.364 378.726 284.72 372.653 286.691C366.678 288.64 358.999 289.627 349.838 289.627H331.373L326.104 316.756C326.004 317.267 325.73 317.728 325.328 318.059C324.925 318.39 324.421 318.57 323.9 318.57H300.188Z" fill="black"/>
<path d="M345.409 229.126H357.963C367.988 229.126 371.47 231.327 372.651 232.64C374.619 234.815 374.987 239.406 373.725 245.907C372.305 253.19 369.679 258.356 365.913 261.253C362.058 264.221 355.785 265.725 347.287 265.725H338.297L345.409 229.126ZM366.943 202.991H321.342C320.302 202.992 319.296 203.354 318.493 204.014C317.691 204.675 317.144 205.594 316.944 206.614L295.784 315.475C295.659 316.124 295.679 316.792 295.842 317.433C296.006 318.073 296.308 318.669 296.729 319.178C297.149 319.688 297.677 320.098 298.275 320.38C298.872 320.662 299.525 320.808 300.185 320.809H323.9C324.94 320.808 325.947 320.446 326.75 319.784C327.552 319.123 328.099 318.203 328.298 317.182L333.219 291.867H349.836C359.228 291.867 367.143 290.841 373.344 288.821C379.726 286.749 385.596 283.236 390.794 278.373C394.975 274.564 398.523 270.114 401.306 265.189C403.99 260.391 405.913 255.035 407.033 249.279C409.808 235.008 407.555 223.583 400.334 215.323C393.184 207.137 381.953 202.988 366.94 202.988L366.943 202.991ZM332.861 270.203H347.283C356.847 270.203 363.965 268.406 368.65 264.799C373.328 261.198 376.484 255.184 378.123 246.759C379.694 238.667 378.981 232.959 375.977 229.633C372.976 226.309 366.972 224.644 357.963 224.644H341.717L332.861 270.203ZM366.943 207.463C380.659 207.463 390.671 211.067 396.959 218.265C403.251 225.467 405.145 235.518 402.635 248.421C401.602 253.738 399.854 258.598 397.395 262.999C394.933 267.406 391.716 271.433 387.741 275.088C383.008 279.519 377.748 282.677 371.957 284.558C366.172 286.443 358.799 287.382 349.836 287.382H329.524L323.894 316.324H300.179L321.339 207.463H366.943Z" fill="white"/>
<defs>
<radialGradient id="paint0_radial_1070_263" cx="0" cy="0" r="1" gradientUnits="userSpaceOnUse" gradientTransform="translate(173.984 185.061) scale(271.165 271.165)">
<stop stop-color="#AEB2D5"/>
<stop offset="0.3" stop-color="#AEB2D5"/>
<stop offset="0.75" stop-color="#484C89"/>
<stop offset="1" stop-color="#484C89"/>
</radialGradient>
</defs>
</svg>
