<svg width="512" height="512" viewBox="0 0 512 512" fill="none" xmlns="http://www.w3.org/2000/svg">
<path d="M429.192 291.572C427.099 285.232 421.616 280.817 414.525 279.757C411.181 279.258 407.352 279.471 402.821 280.405C394.923 282.035 389.063 282.655 384.787 282.775C400.928 255.523 414.053 224.445 421.609 195.191C433.827 147.888 427.298 126.339 419.669 116.591C399.477 90.7914 370.019 76.9314 334.479 76.5073C315.521 76.2755 298.878 80.0186 290.195 82.7105C282.112 81.2841 273.42 80.4877 264.3 80.3405C247.204 80.0677 232.099 83.7945 219.192 91.4541C212.047 89.0377 200.579 85.6314 187.335 83.4577C156.187 78.3441 131.082 82.3286 112.719 95.3009C90.484 111.007 80.1763 138.296 82.0827 176.41C82.6881 188.511 89.4572 225.329 100.115 260.246C106.241 280.316 112.773 296.983 119.529 309.787C129.112 327.944 139.365 338.636 150.875 342.476C157.327 344.625 169.049 346.131 181.377 335.863C182.94 337.755 185.025 339.636 187.792 341.383C191.306 343.599 195.603 345.41 199.894 346.483C215.359 350.349 229.845 349.382 242.204 343.963C242.28 346.161 242.339 348.261 242.388 350.075C242.469 353.016 242.551 355.9 242.659 358.597C243.391 376.835 244.632 391.015 248.309 400.937C248.51 401.482 248.782 402.314 249.068 403.196C250.902 408.812 253.969 418.213 261.772 425.575C269.851 433.202 279.624 435.54 288.575 435.54C293.064 435.54 297.348 434.951 301.104 434.147C314.495 431.276 329.704 426.905 340.706 411.239C351.108 396.43 356.164 374.125 357.079 338.98C357.198 337.986 357.307 337.037 357.412 336.133L357.63 334.275L360.08 334.491L360.712 334.533C374.351 335.155 391.028 332.263 401.27 327.505C409.364 323.75 435.299 310.057 429.192 291.572Z" fill="#686464"/>
<path d="M405.871 295.166C365.317 303.532 362.528 289.802 362.528 289.802C405.346 226.266 423.247 145.616 407.801 125.878C365.659 72.0345 292.711 97.4991 291.494 98.1591L291.102 98.23C283.09 96.5664 274.124 95.5764 264.045 95.4114C245.696 95.1114 231.776 100.222 221.213 108.232C221.213 108.232 91.0813 54.6223 97.1345 175.656C98.4218 201.404 134.04 370.483 176.523 319.413C192.05 300.738 207.055 284.949 207.055 284.949C214.505 289.899 223.426 292.424 232.778 291.517L233.505 290.901C233.279 293.219 233.382 295.487 233.795 298.172C222.851 310.4 226.068 312.546 204.19 317.05C182.051 321.613 195.056 329.735 203.547 331.859C213.841 334.432 237.656 338.079 253.747 315.553L253.106 318.123C257.393 321.558 260.404 340.464 259.9 357.603C259.395 374.741 259.058 386.508 262.436 395.699C265.816 404.89 269.183 425.57 297.945 419.407C321.976 414.257 334.43 400.911 336.164 378.648C337.392 362.822 340.175 365.162 340.35 351.011L342.582 344.313C345.155 322.859 342.991 315.937 357.796 319.157L361.396 319.473C372.292 319.968 386.555 317.72 394.927 313.829C412.951 305.465 423.642 291.497 405.869 295.166H405.871Z" fill="#336791"/>
<path d="M228.829 187.17C225.175 186.662 221.865 187.132 220.191 188.4C219.25 189.114 218.958 189.94 218.879 190.509C218.669 192.015 219.724 193.682 220.373 194.541C222.209 196.974 224.89 198.645 227.543 199.014C227.928 199.068 228.311 199.093 228.691 199.093C233.116 199.093 237.141 195.647 237.495 193.104C237.938 189.918 233.314 187.794 228.829 187.17ZM349.898 187.271C349.549 184.775 345.106 184.063 340.89 184.649C336.679 185.235 332.596 187.136 332.937 189.639C333.21 191.585 336.724 194.906 340.883 194.906C341.235 194.906 341.59 194.883 341.947 194.833C344.723 194.448 346.761 192.685 347.729 191.669C349.201 190.12 350.055 188.394 349.898 187.271Z" fill="white"/>
<path d="M419.366 294.216C417.819 289.54 412.842 288.036 404.573 289.743C380.021 294.81 371.228 291.3 368.341 289.175C387.425 260.102 403.125 224.958 411.594 192.17C415.606 176.638 417.822 162.213 418.003 150.456C418.204 137.552 416.006 128.069 411.473 122.276C393.197 98.9241 366.375 86.3977 333.906 86.0541C311.585 85.8032 292.726 91.5155 289.07 93.1218C281.371 91.2073 272.978 90.0318 263.84 89.8818C247.084 89.6105 232.599 93.6223 220.607 101.8C215.398 99.8609 201.936 95.2395 185.473 92.5873C157.011 88.0055 134.394 91.4773 118.254 102.911C98.9956 116.556 90.1047 140.946 91.8269 175.402C92.4065 186.995 99.0119 222.656 109.436 256.809C123.156 301.76 138.072 327.206 153.765 332.441C155.601 333.054 157.719 333.482 160.055 333.482C165.78 333.482 172.798 330.902 180.101 322.123C189.007 311.438 198.221 301.013 207.729 290.86C213.898 294.171 220.676 296.02 227.607 296.205C227.621 296.387 227.638 296.568 227.655 296.748C226.462 298.171 225.293 299.614 224.15 301.078C219.347 307.175 218.348 308.444 202.888 311.627C198.491 312.535 186.811 314.942 186.639 323.129C186.454 332.075 200.446 335.831 202.04 336.23C207.596 337.62 212.948 338.306 218.052 338.306C230.465 338.306 241.389 334.226 250.119 326.332C249.851 358.222 251.18 389.646 255.009 399.22C258.146 407.058 265.806 426.213 290.006 426.212C293.556 426.212 297.465 425.799 301.764 424.877C327.02 419.463 337.988 408.3 342.23 383.691C344.501 370.539 348.396 339.133 350.229 322.286C354.096 323.493 359.075 324.045 364.457 324.044C375.683 324.044 388.636 321.659 396.759 317.889C405.885 313.65 422.352 303.251 419.366 294.216ZM359.221 180.38C359.138 185.353 358.453 189.868 357.728 194.58C356.946 199.649 356.139 204.89 355.936 211.251C355.736 217.442 356.509 223.878 357.256 230.103C358.767 242.676 360.317 255.62 354.316 268.391C353.319 266.625 352.431 264.799 351.657 262.925C350.911 261.116 349.291 258.212 347.048 254.192C338.322 238.543 317.888 201.896 328.348 186.943C331.464 182.492 339.372 177.915 359.221 180.38ZM335.161 96.1245C364.253 96.7668 387.266 107.65 403.558 128.47C416.055 144.44 402.294 217.104 362.458 279.791C362.058 279.282 361.655 278.774 361.25 278.268L360.746 277.638C371.04 260.638 369.027 243.817 367.235 228.905C366.499 222.785 365.803 217.004 365.981 211.574C366.163 205.82 366.924 200.883 367.661 196.11C368.565 190.229 369.485 184.143 369.231 176.969C369.421 176.216 369.497 175.327 369.398 174.272C368.75 167.392 360.896 146.803 344.886 128.167C336.129 117.974 323.359 106.567 305.922 98.8736C313.422 97.3191 323.678 95.8695 335.161 96.1245ZM172.373 315.697C164.327 325.371 158.772 323.516 156.945 322.908C145.04 318.937 131.226 293.775 119.048 253.875C108.51 219.351 102.351 184.634 101.863 174.899C100.325 144.111 107.788 122.654 124.047 111.123C150.507 92.3595 194.01 103.59 211.49 109.286C211.239 109.535 210.977 109.766 210.729 110.019C182.044 138.988 182.724 188.482 182.795 191.508C182.792 192.675 182.891 194.328 183.024 196.601C183.518 204.926 184.437 220.42 181.982 237.966C179.702 254.271 184.729 270.23 195.77 281.751C196.903 282.931 198.094 284.054 199.339 285.116C194.424 290.38 183.743 302.02 172.373 315.697ZM203.026 274.798C194.127 265.511 190.085 252.595 191.936 239.357C194.526 220.822 193.571 204.68 193.056 196.007C192.984 194.793 192.92 193.73 192.883 192.891C197.074 189.175 216.493 178.77 230.342 181.944C236.661 183.39 240.512 187.694 242.113 195.096C250.399 233.418 243.21 249.39 237.433 262.226C236.243 264.87 235.118 267.37 234.158 269.955L233.413 271.955C231.529 277.008 229.775 281.707 228.688 286.169C219.227 286.142 210.024 282.1 203.026 274.796V274.798ZM204.478 326.48C201.716 325.79 199.231 324.591 197.773 323.597C198.991 323.024 201.158 322.244 204.916 321.47C223.103 317.726 225.912 315.084 232.046 307.296C233.451 305.51 235.046 303.486 237.253 301.02L237.256 301.018C240.544 297.336 242.048 297.96 244.775 299.092C246.986 300.006 249.139 302.777 250.011 305.826C250.425 307.266 250.888 309.999 249.371 312.126C236.558 330.066 217.887 329.835 204.478 326.48ZM299.659 415.05C277.41 419.818 269.532 408.465 264.341 395.488C260.99 387.11 259.343 349.329 260.511 307.605C260.526 307.05 260.447 306.515 260.295 306.01C260.158 305.014 259.95 304.028 259.673 303.062C257.936 296.991 253.701 291.913 248.622 289.807C246.604 288.971 242.9 287.437 238.449 288.576C239.398 284.665 241.044 280.248 242.829 275.466L243.578 273.455C244.421 271.187 245.479 268.837 246.597 266.35C252.642 252.921 260.921 234.527 251.936 192.973C248.57 177.408 237.331 169.807 220.294 171.573C210.08 172.63 200.735 176.751 196.074 179.114C195.072 179.621 194.156 180.112 193.299 180.59C194.6 164.908 199.515 135.6 217.899 117.058C229.475 105.385 244.891 99.6195 263.674 99.9305C300.683 100.536 324.416 119.529 337.809 135.356C349.351 148.994 355.601 162.733 358.095 170.143C339.338 168.235 326.581 171.937 320.115 181.183C306.046 201.294 327.811 240.326 338.271 259.086C340.19 262.524 341.846 265.495 342.366 266.758C345.773 275.013 350.183 280.525 353.402 284.548C354.39 285.78 355.347 286.976 356.075 288.021C350.394 289.659 340.19 293.443 341.12 312.358C340.37 321.849 335.037 366.284 332.327 381.984C328.751 402.725 321.118 410.45 299.659 415.052V415.05ZM392.528 308.774C386.719 311.47 376.997 313.492 367.763 313.927C357.563 314.405 352.37 312.785 351.148 311.788C350.576 300 354.962 298.769 359.606 297.465C360.335 297.261 361.047 297.06 361.734 296.82C362.161 297.168 362.629 297.513 363.141 297.851C371.34 303.262 385.962 303.846 406.606 299.585L406.832 299.54C404.048 302.143 399.283 305.636 392.528 308.774Z" fill="white"/>
</svg>
