<svg width="512" height="512" viewBox="0 0 512 512" fill="none" xmlns="http://www.w3.org/2000/svg">
<g clip-path="url(#clip0_1066_99)">
<path d="M255.388 76C170.392 76 169.479 108.992 169.479 115.783C169.479 126.086 169.479 157 169.479 157H257.024V169.374C257.024 169.374 165.872 169.374 134.706 169.374C108.691 169.374 76 185.191 76 255.283C76 319.668 101.501 344.567 127.238 344.567C134.88 344.567 157.818 344.567 157.818 344.567C157.818 344.567 157.818 312.608 157.818 301.612C157.818 283.641 166.723 250.374 208.238 250.374C260.307 250.374 273.597 250.374 295.067 250.374C307.837 250.374 343.85 244.824 343.85 203.227C343.85 159.203 343.85 144.678 343.85 123.965C343.853 113.646 342.089 76 255.388 76ZM207.115 103.717C215.827 103.717 222.867 110.753 222.867 119.468C222.867 128.177 215.827 135.22 207.115 135.22C198.403 135.22 191.364 128.18 191.364 119.468C191.364 110.753 198.403 103.717 207.115 103.717Z" fill="url(#paint0_linear_1066_99)"/>
<path d="M256.614 436C341.57 436 342.627 402.386 342.627 396.217C342.627 385.914 342.627 355 342.627 355H254.977V342.626C254.977 342.626 346.718 342.626 377.295 342.626C403.507 342.626 436.002 326.413 436.002 256.717C436.002 180.39 401.514 167.433 384.764 167.433C377.119 167.433 354.183 167.433 354.183 167.433C354.183 167.433 354.183 200.868 354.183 210.388C354.183 228.359 345.573 261.626 303.764 261.626C251.695 261.626 240.024 261.626 216.932 261.626C204.194 261.626 168.148 267.831 168.148 308.773C168.148 356.145 168.148 368.549 168.148 388.035C168.148 405.151 178.608 436 256.614 436ZM304.89 408.283C296.178 408.283 289.138 401.244 289.138 392.532C289.138 383.82 296.174 376.78 304.89 376.78C313.598 376.78 320.641 383.82 320.641 392.532C320.641 401.244 313.598 408.283 304.89 408.283Z" fill="url(#paint1_linear_1066_99)"/>
</g>
<defs>
<linearGradient id="paint0_linear_1066_99" x1="109.737" y1="108.158" x2="288.681" y2="287.702" gradientUnits="userSpaceOnUse">
<stop stop-color="#387EB8"/>
<stop offset="1" stop-color="#366994"/>
</linearGradient>
<linearGradient id="paint1_linear_1066_99" x1="218.486" y1="222.87" x2="410.34" y2="406.676" gradientUnits="userSpaceOnUse">
<stop stop-color="#FFE052"/>
<stop offset="1" stop-color="#FFC331"/>
</linearGradient>
<clipPath id="clip0_1066_99">
<rect width="360" height="360" fill="white" transform="translate(76 76)"/>
</clipPath>
</defs>
</svg>
