<svg width="512" height="512" viewBox="0 0 512 512" fill="none" xmlns="http://www.w3.org/2000/svg">
<path d="M423.078 340.117C403.711 350.234 303.406 391.281 282.016 402.555C260.625 413.828 248.773 413.539 232.008 405.445C215.242 397.352 108.578 354.57 89.2109 345.32C79.6719 340.695 74.7578 336.937 74.7578 333.18V296.469C74.7578 296.469 213.508 266.117 236.055 258.313C258.602 250.219 266.117 249.93 285.195 256.867C304.273 263.805 418.453 284.328 437.242 291.266V327.398C437.242 331.156 432.906 335.203 423.078 340.117Z" fill="#A41E11"/>
<path d="M423.078 303.695C403.711 313.813 303.407 354.859 282.016 366.133C260.625 377.406 248.774 377.117 232.008 369.023C215.242 360.93 108.578 317.859 89.2112 308.609C70.1331 299.359 69.555 293 88.344 285.773C107.133 278.258 213.219 236.633 235.766 228.828C258.313 220.734 265.828 220.445 284.907 227.383C303.985 234.32 403.711 273.922 422.5 280.859C441.867 287.797 442.446 293.578 423.078 303.695Z" fill="#D82C20"/>
<path d="M423.078 280.57C403.711 290.688 303.406 331.734 282.016 343.008C260.625 353.992 248.773 353.992 232.008 345.898C215.242 337.805 108.578 294.734 89.2109 285.484C79.6719 280.859 74.7578 277.102 74.7578 273.344V236.633C74.7578 236.633 213.508 206.281 236.055 198.477C258.602 190.383 266.117 190.094 285.195 197.031C304.273 203.969 418.453 224.492 437.242 231.43V267.563C437.242 271.32 432.906 275.367 423.078 280.57Z" fill="#A41E11"/>
<path d="M423.078 243.859C403.71 253.977 303.406 295.023 282.015 306.297C260.624 317.281 248.773 317.281 232.007 309.188C215.242 301.094 108.578 258.023 89.2103 248.773C69.8431 239.523 69.5541 233.164 88.3431 225.937C107.132 218.422 213.218 176.797 235.765 168.992C258.312 160.898 265.828 160.609 284.906 167.547C303.984 174.484 403.71 214.086 422.499 221.023C441.867 227.961 442.445 233.742 423.078 243.859Z" fill="#D82C20"/>
<path d="M423.078 218.422C403.711 228.539 303.406 269.586 282.016 280.859C260.625 291.844 248.773 291.844 232.008 283.75C215.242 275.945 108.578 232.875 89.2109 223.625C79.6719 219 74.4688 215.242 74.4688 211.484V174.773C74.4688 174.773 213.219 144.422 235.766 136.617C258.312 128.523 265.828 128.234 284.906 135.172C303.984 142.109 418.164 162.633 436.953 169.57V205.703C437.242 209.461 432.906 213.219 423.078 218.422Z" fill="#A41E11"/>
<path d="M423.078 181.711C403.71 191.828 303.406 232.875 282.015 244.148C260.624 255.133 248.773 255.133 232.007 247.039C215.242 238.945 108.578 196.164 89.2103 186.914C69.8431 177.664 69.5541 171.305 88.3431 164.078C107.132 156.563 213.218 114.937 235.765 107.133C258.312 99.0391 265.828 98.75 284.906 105.687C303.984 112.625 403.71 152.227 422.499 159.164C441.867 166.102 442.445 171.883 423.078 181.711Z" fill="#D82C20"/>
<path d="M303.406 146.445L272.187 149.914L264.961 166.68L253.688 147.891L217.555 144.711L244.437 134.883L236.344 119.852L261.781 129.68L285.484 121.875L279.125 137.484L303.406 146.445ZM263.227 228.539L204.547 204.258L288.664 191.539L263.227 228.539Z" fill="white"/>
<path d="M182 190.672C206.745 190.672 226.805 182.907 226.805 173.328C226.805 163.749 206.745 155.984 182 155.984C157.255 155.984 137.195 163.749 137.195 173.328C137.195 182.907 157.255 190.672 182 190.672Z" fill="white"/>
<path d="M340.695 151.07L390.414 170.727L340.695 190.383V151.07Z" fill="#7A0C00"/>
<path d="M285.773 173.039L340.695 151.07V190.383L335.203 192.695L285.773 173.039Z" fill="#AD2115"/>
</svg>
