<svg width="512" height="512" viewBox="0 0 512 512" fill="none" xmlns="http://www.w3.org/2000/svg">
<path d="M74 84.3226C90.6271 80.3083 116.371 78 139.616 78C202.441 78 240.051 99.8214 240.051 155.358C240.051 189.413 226.243 211.88 204.59 224.115L257 313.368C252.923 316.309 244.128 318 231.87 318C218.063 318 208.96 316.353 202.37 313.368L158.743 236.01H153.717C142.902 236.015 132.099 235.245 121.384 233.702V313.706C116.985 316.353 109.139 318 97.8455 318C86.8719 318 78.7048 316.339 74 313.706V84.3226ZM120.794 191.715C129.715 193.264 138.741 194.036 147.78 194.023C175.088 194.023 191.729 183.73 191.729 157.998C191.729 131.531 174.153 120.65 142.769 120.65C135.403 120.616 128.05 121.269 120.794 122.605V191.715Z" fill="#F25A5A"/>
<path d="M439 324.795C439 364.549 418.881 375.47 403.737 382.812C365.068 401.576 303.123 379.75 237.285 373.108C177.671 365.302 118.547 360.161 109.358 373.546C105.903 376.936 105.168 387.856 109.358 392.309C121.718 405.444 153.955 396.287 176.781 392.147C183.864 391.029 191.023 393.664 195.56 399.057C200.098 404.451 201.327 411.784 198.783 418.296C196.239 424.807 190.308 429.506 183.227 430.623C172.907 432.194 162.479 432.988 152.034 433C129.799 433 101.843 429.16 85.9756 412.261C78.0745 403.855 69.98 388.932 76.2184 365.577C88.0899 321.322 159.149 332.255 241.473 340.561C298.792 346.339 360.973 365.577 385.82 347.913C392.153 343.411 403.967 333.317 397.599 324.795C391.231 316.274 380.806 320.895 367.111 320.895C298.51 320.895 258.113 276.649 258.113 202.815C258.122 147.348 281.026 108.561 318.356 90.1511C334.576 82.1515 353.522 78 374.496 78C392.778 78 411.357 81.2114 423.22 88.2621C430.593 98.853 433.801 117.779 432.19 131.909C416.804 124.529 402.701 120.676 384.435 120.676C339.234 120.676 308.135 143.783 308.135 199.604C308.135 255.425 338.906 277.577 382.183 277.577C394.503 277.452 411.172 275.956 432.19 273.089C436.73 290.012 439 307.247 439 324.795Z" fill="#F25A5A"/>
</svg>
