<svg width="512" height="512" viewBox="0 0 512 512" fill="none" xmlns="http://www.w3.org/2000/svg">
<g clip-path="url(#clip0_1067_202)">
<path d="M76 200.8C76 141.969 76 112.553 94.2765 94.2765C112.553 76 141.969 76 200.8 76H311.2C370.031 76 399.447 76 417.723 94.2765C436 112.553 436 141.969 436 200.8V311.2C436 370.031 436 399.447 417.723 417.723C399.447 436 370.031 436 311.2 436H200.8C141.969 436 112.553 436 94.2765 417.723C76 399.447 76 370.031 76 311.2V200.8Z" fill="#4945FF"/>
<path fill-rule="evenodd" clip-rule="evenodd" d="M324.399 185.2H203.199V247H264.999V308.8H326.799V187.6C326.799 186.275 325.725 185.2 324.399 185.2Z" fill="white"/>
<path d="M265.002 247H262.602V249.4H265.002V247Z" fill="white"/>
<path d="M203.199 247H262.599C263.925 247 264.999 248.075 264.999 249.4V308.8H205.599C204.274 308.8 203.199 307.725 203.199 306.4V247Z" fill="#9593FF"/>
<path d="M265 308.8H326.8L267.048 368.552C266.292 369.308 265 368.772 265 367.703V308.8Z" fill="#9593FF"/>
<path d="M203.199 247H144.296C143.227 247 142.692 245.708 143.448 244.952L203.199 185.2V247Z" fill="#9593FF"/>
</g>
<defs>
<clipPath id="clip0_1067_202">
<rect width="360" height="360" fill="white" transform="translate(76 76)"/>
</clipPath>
</defs>
</svg>
