<svg width="512" height="512" viewBox="0 0 512 512" fill="none" xmlns="http://www.w3.org/2000/svg">
<g clip-path="url(#clip0_1066_137)">
<path d="M101.586 255.996C101.586 317.117 137.107 369.937 188.615 394.968L114.955 193.153C106.387 212.357 101.586 233.609 101.586 255.996Z" fill="#21759B"/>
<path d="M360.25 248.203C360.25 229.12 353.395 215.904 347.515 205.617C339.688 192.897 332.351 182.126 332.351 169.406C332.351 155.212 343.117 141.998 358.281 141.998C358.966 141.998 359.615 142.084 360.282 142.122C332.809 116.953 296.207 101.586 256.005 101.586C202.058 101.586 154.596 129.264 126.984 171.187C130.607 171.295 134.022 171.372 136.922 171.372C153.074 171.372 178.075 169.412 178.075 169.412C186.4 168.921 187.381 181.147 179.066 182.132C179.066 182.132 170.7 183.116 161.392 183.604L217.625 350.862L251.418 249.514L227.36 183.598C219.044 183.11 211.167 182.126 211.167 182.126C202.845 181.638 203.821 168.915 212.142 169.406C212.142 169.406 237.644 171.366 252.817 171.366C268.966 171.366 293.971 169.406 293.971 169.406C302.301 168.915 303.279 181.141 294.961 182.126C294.961 182.126 286.578 183.11 277.287 183.598L333.091 349.59L348.494 298.121C355.169 276.763 360.25 261.422 360.25 248.203Z" fill="#21759B"/>
<path d="M258.714 269.503L212.383 404.129C226.216 408.196 240.846 410.42 256.005 410.42C273.987 410.42 291.232 407.311 307.284 401.667C306.87 401.006 306.493 400.303 306.185 399.54L258.714 269.503Z" fill="#21759B"/>
<path d="M391.503 181.911C392.167 186.83 392.543 192.11 392.543 197.789C392.543 213.459 389.616 231.074 380.801 253.098L333.633 389.47C379.541 362.7 410.419 312.965 410.419 255.999C410.422 229.152 403.564 203.907 391.503 181.911Z" fill="#21759B"/>
<path d="M256.006 76C156.753 76 76 156.745 76 255.996C76 355.258 156.753 436 256.006 436C355.256 436 436.021 355.258 436.021 255.996C436.018 156.745 355.256 76 256.006 76ZM256.006 427.749C161.305 427.749 84.2537 350.7 84.2537 255.996C84.2537 161.297 161.302 84.2535 256.006 84.2535C350.704 84.2535 427.749 161.297 427.749 255.996C427.749 350.7 350.704 427.749 256.006 427.749Z" fill="#21759B"/>
</g>
<defs>
<clipPath id="clip0_1066_137">
<rect width="360" height="360" fill="white" transform="translate(76 76)"/>
</clipPath>
</defs>
</svg>
